<?xml version="1.0" standalone="no"?>
<!DOCTYPE svg PUBLIC "-//W3C//DTD SVG 20010904//EN"
 "http://www.w3.org/TR/2001/REC-SVG-20010904/DTD/svg10.dtd">
<svg version="1.0" xmlns="http://www.w3.org/2000/svg"
 width="32px" height="32px" viewBox="0 0 512.000000 512.000000"
 preserveAspectRatio="xMidYMid meet">

<g transform="translate(0.000000,512.000000) scale(0.100000,-0.100000)"
fill="#5ce1e6" stroke="none">
<path d="M1120 4720 l0 -400 160 0 160 0 0 400 0 400 -160 0 -160 0 0 -400z"/>
<path d="M3040 4720 l0 -400 160 0 160 0 0 400 0 400 -160 0 -160 0 0 -400z"/>
<path d="M160 2720 l0 -2080 1288 0 1287 -1 55 -82 c30 -45 97 -125 150 -178
185 -186 408 -304 670 -356 114 -23 344 -23 462 0 524 103 922 501 1025 1025
23 119 23 348 0 464 -53 264 -166 477 -352 665 -107 107 -268 222 -371 263
l-54 22 0 1169 0 1169 -400 0 -400 0 0 -160 0 -160 240 0 240 0 0 -240 0 -240
-1760 0 -1760 0 0 240 0 240 240 0 240 0 0 160 0 160 -400 0 -400 0 0 -2080z
m3840 397 l0 -563 -152 0 c-105 0 -181 -5 -240 -17 -527 -105 -920 -498 -1025
-1025 -23 -116 -23 -357 0 -462 10 -41 17 -78 17 -82 0 -5 -477 -8 -1060 -8
l-1060 0 0 1360 0 1360 1760 0 1760 0 0 -563z m80 -906 c273 -71 515 -274 635
-534 61 -133 79 -222 79 -397 0 -160 -8 -211 -55 -338 -83 -226 -276 -433
-503 -538 -134 -61 -221 -79 -396 -78 -130 0 -169 4 -240 23 -336 91 -600 355
-691 691 -34 123 -34 358 -1 479 45 166 119 295 240 423 143 150 316 245 517
284 103 20 308 12 415 -15z"/>
<path d="M1600 3120 l0 -240 240 0 240 0 0 240 0 240 -240 0 -240 0 0 -240z"/>
<path d="M2400 3120 l0 -240 240 0 240 0 0 240 0 240 -240 0 -240 0 0 -240z"/>
<path d="M3200 3120 l0 -240 240 0 240 0 0 240 0 240 -240 0 -240 0 0 -240z"/>
<path d="M800 2320 l0 -240 240 0 240 0 0 240 0 240 -240 0 -240 0 0 -240z"/>
<path d="M1600 2320 l0 -240 240 0 240 0 0 240 0 240 -240 0 -240 0 0 -240z"/>
<path d="M2400 2320 l0 -240 119 0 119 0 65 83 c36 45 90 107 121 137 l56 54
0 103 0 103 -240 0 -240 0 0 -240z"/>
<path d="M800 1520 l0 -240 240 0 240 0 0 240 0 240 -240 0 -240 0 0 -240z"/>
<path d="M1600 1520 l0 -240 240 0 240 0 0 240 0 240 -240 0 -240 0 0 -240z"/>
<path d="M3738 1910 c-287 -52 -500 -279 -533 -567 l-7 -63 278 0 c153 0 274
4 269 8 -6 5 -48 37 -95 72 -47 35 -87 65 -89 67 -2 1 9 21 24 44 33 47 96 93
156 114 89 32 215 11 293 -48 l32 -25 112 110 c89 88 110 114 101 125 -31 37
-166 114 -240 138 -90 28 -224 39 -301 25z"/>
<path d="M3930 1276 c0 -2 40 -37 90 -77 49 -41 90 -79 90 -86 0 -22 -57 -78
-107 -105 -26 -15 -77 -32 -113 -39 -55 -10 -75 -9 -129 5 -35 9 -82 29 -106
45 l-42 28 -112 -111 -112 -111 28 -23 c66 -56 152 -104 227 -129 69 -22 99
-26 196 -26 98 0 127 4 197 27 96 31 213 106 273 173 88 101 151 240 165 371
l7 62 -276 0 c-152 0 -276 -2 -276 -4z"/>
<path d="M1600 4640 l0 -160 640 0 640 0 0 160 0 160 -640 0 -640 0 0 -160z"/>
</g>
</svg>
